# xmcd
#
# Track frame offsets:
#  150
#  19492
#  34237
#  90455
#  100572
#  119727
#  142235
#  160455
#  168765
#  183550
#  225355
#  235815
#  262507
#  278575
#  334152
#  339620
#
# Disc length: 4643 seconds
#
# Revision: 0
# Processed by: cddbd v1.4PL0 Copyright (c) Steve Scherf et al.
# Submitted via: AltoMP3_Maker 3.0
#
DISCID=d7122110
DTITLE=James Brown - Sex Machine in Concert
DYEAR=1900
DGENRE=
TTITLE0=Sex Machine
TTITLE1=I got you
TTITLE2=It's a man's, man's, man's world
TTITLE3=Papa's got a brand new bag
TTITLE4=Give it up or turn it a loose
TTITLE5=It's too funky in here
TTITLE6=Gonna have a funky good time
TTITLE7=Try me
TTITLE8=Get on the good foot
TTITLE9=Prisioner of love
TTITLE10=Get up offa that thang
TTITLE11=Georgia on my mind
TTITLE12=I got the feeling
TTITLE13=Super bad
TTITLE14=Cold sweat
TTITLE15=I can't stand myself
EXTD=
EXTT0=
EXTT1=
EXTT2=
EXTT3=
EXTT4=
EXTT5=
EXTT6=
EXTT7=
EXTT8=
EXTT9=
EXTT10=
EXTT11=
EXTT12=
EXTT13=
EXTT14=
EXTT15=
PLAYORDER=
